<mxfile host="app.diagrams.net" modified="2022-08-16T01:20:49.709Z" agent="5.0 (Windows)" etag="fhq_rVsImeBk6055D4oA" version="18.0.7" type="github">
  <diagram id="C5RBs43oDa-KdzZeNtuy" name="Page-1">
    <mxGraphModel dx="1038" dy="528" grid="1" gridSize="10" guides="1" tooltips="1" connect="1" arrows="1" fold="1" page="1" pageScale="1" pageWidth="827" pageHeight="1169" math="0" shadow="0">
      <root>
        <mxCell id="WIyWlLk6GJQsqaUBKTNV-0" />
        <mxCell id="WIyWlLk6GJQsqaUBKTNV-1" parent="WIyWlLk6GJQsqaUBKTNV-0" />
        <mxCell id="tJ01jzikXB8J_-vJGD6S-6" value="" style="endArrow=classic;html=1;exitX=0.5;exitY=1;exitDx=0;exitDy=0;entryX=0;entryY=0.5;entryDx=0;entryDy=0;" edge="1" parent="WIyWlLk6GJQsqaUBKTNV-1" source="tJ01jzikXB8J_-vJGD6S-64" target="tJ01jzikXB8J_-vJGD6S-65">
          <mxGeometry relative="1" as="geometry">
            <mxPoint x="85" y="140" as="sourcePoint" />
            <mxPoint x="300" y="85" as="targetPoint" />
            <Array as="points">
              <mxPoint x="90" y="175" />
              <mxPoint x="200" y="175" />
              <mxPoint x="200" y="100" />
            </Array>
          </mxGeometry>
        </mxCell>
        <mxCell id="tJ01jzikXB8J_-vJGD6S-7" value="&lt;div&gt;Happiness&lt;/div&gt;" style="edgeLabel;resizable=0;html=1;align=center;verticalAlign=middle;" connectable="0" vertex="1" parent="tJ01jzikXB8J_-vJGD6S-6">
          <mxGeometry relative="1" as="geometry">
            <mxPoint x="-57" y="-12" as="offset" />
          </mxGeometry>
        </mxCell>
        <mxCell id="tJ01jzikXB8J_-vJGD6S-9" value="" style="endArrow=classic;html=1;exitX=0.5;exitY=1;exitDx=0;exitDy=0;entryX=0;entryY=0.5;entryDx=0;entryDy=0;" edge="1" parent="WIyWlLk6GJQsqaUBKTNV-1" target="tJ01jzikXB8J_-vJGD6S-86">
          <mxGeometry relative="1" as="geometry">
            <mxPoint x="90" y="140" as="sourcePoint" />
            <mxPoint x="205" y="235" as="targetPoint" />
            <Array as="points">
              <mxPoint x="90" y="235" />
            </Array>
          </mxGeometry>
        </mxCell>
        <mxCell id="tJ01jzikXB8J_-vJGD6S-10" value="&lt;div&gt;Money&lt;/div&gt;" style="edgeLabel;resizable=0;html=1;align=center;verticalAlign=middle;" connectable="0" vertex="1" parent="tJ01jzikXB8J_-vJGD6S-9">
          <mxGeometry relative="1" as="geometry">
            <mxPoint x="20" y="-3" as="offset" />
          </mxGeometry>
        </mxCell>
        <mxCell id="tJ01jzikXB8J_-vJGD6S-22" value="" style="endArrow=classic;html=1;exitX=0.5;exitY=1;exitDx=0;exitDy=0;entryX=0;entryY=0.5;entryDx=0;entryDy=0;" edge="1" parent="WIyWlLk6GJQsqaUBKTNV-1" source="tJ01jzikXB8J_-vJGD6S-123" target="tJ01jzikXB8J_-vJGD6S-192">
          <mxGeometry relative="1" as="geometry">
            <mxPoint x="90" y="645" as="sourcePoint" />
            <mxPoint x="200" y="540" as="targetPoint" />
            <Array as="points">
              <mxPoint x="90" y="535" />
            </Array>
          </mxGeometry>
        </mxCell>
        <mxCell id="tJ01jzikXB8J_-vJGD6S-23" value="&lt;div&gt;Family&lt;/div&gt;" style="edgeLabel;resizable=0;html=1;align=center;verticalAlign=middle;" connectable="0" vertex="1" parent="tJ01jzikXB8J_-vJGD6S-22">
          <mxGeometry relative="1" as="geometry">
            <mxPoint x="7" y="-15" as="offset" />
          </mxGeometry>
        </mxCell>
        <mxCell id="tJ01jzikXB8J_-vJGD6S-27" value="" style="endArrow=classic;html=1;exitX=0.5;exitY=1;exitDx=0;exitDy=0;" edge="1" parent="WIyWlLk6GJQsqaUBKTNV-1" source="tJ01jzikXB8J_-vJGD6S-123">
          <mxGeometry relative="1" as="geometry">
            <mxPoint x="90" y="645" as="sourcePoint" />
            <mxPoint x="205" y="600" as="targetPoint" />
            <Array as="points">
              <mxPoint x="90" y="600" />
              <mxPoint x="155" y="600" />
            </Array>
          </mxGeometry>
        </mxCell>
        <mxCell id="tJ01jzikXB8J_-vJGD6S-28" value="&lt;div&gt;Freedom&lt;/div&gt;" style="edgeLabel;resizable=0;html=1;align=center;verticalAlign=middle;" connectable="0" vertex="1" parent="tJ01jzikXB8J_-vJGD6S-27">
          <mxGeometry relative="1" as="geometry">
            <mxPoint x="28" y="-15" as="offset" />
          </mxGeometry>
        </mxCell>
        <mxCell id="tJ01jzikXB8J_-vJGD6S-33" value="" style="endArrow=classic;html=1;exitX=0.5;exitY=1;exitDx=0;exitDy=0;" edge="1" parent="WIyWlLk6GJQsqaUBKTNV-1" source="tJ01jzikXB8J_-vJGD6S-123">
          <mxGeometry relative="1" as="geometry">
            <mxPoint x="90" y="645" as="sourcePoint" />
            <mxPoint x="205" y="660" as="targetPoint" />
            <Array as="points">
              <mxPoint x="90" y="660" />
              <mxPoint x="145" y="660" />
              <mxPoint x="180" y="660" />
            </Array>
          </mxGeometry>
        </mxCell>
        <mxCell id="tJ01jzikXB8J_-vJGD6S-34" value="Legacy" style="edgeLabel;resizable=0;html=1;align=center;verticalAlign=middle;" connectable="0" vertex="1" parent="tJ01jzikXB8J_-vJGD6S-33">
          <mxGeometry relative="1" as="geometry">
            <mxPoint x="20" y="1" as="offset" />
          </mxGeometry>
        </mxCell>
        <mxCell id="tJ01jzikXB8J_-vJGD6S-42" value="" style="endArrow=classic;html=1;exitX=0.5;exitY=1;exitDx=0;exitDy=0;" edge="1" parent="WIyWlLk6GJQsqaUBKTNV-1" source="tJ01jzikXB8J_-vJGD6S-123">
          <mxGeometry relative="1" as="geometry">
            <mxPoint x="90" y="645" as="sourcePoint" />
            <mxPoint x="205" y="717" as="targetPoint" />
            <Array as="points">
              <mxPoint x="90" y="717" />
              <mxPoint x="145" y="717" />
            </Array>
          </mxGeometry>
        </mxCell>
        <mxCell id="tJ01jzikXB8J_-vJGD6S-43" value="&lt;div&gt;Nothing&lt;/div&gt;" style="edgeLabel;resizable=0;html=1;align=center;verticalAlign=middle;" connectable="0" vertex="1" parent="tJ01jzikXB8J_-vJGD6S-42">
          <mxGeometry relative="1" as="geometry">
            <mxPoint x="20" y="32" as="offset" />
          </mxGeometry>
        </mxCell>
        <mxCell id="tJ01jzikXB8J_-vJGD6S-124" style="edgeStyle=orthogonalEdgeStyle;orthogonalLoop=1;jettySize=auto;html=1;exitX=0.5;exitY=1;exitDx=0;exitDy=0;entryX=0.5;entryY=0;entryDx=0;entryDy=0;fontColor=default;" edge="1" parent="WIyWlLk6GJQsqaUBKTNV-1" source="tJ01jzikXB8J_-vJGD6S-64" target="tJ01jzikXB8J_-vJGD6S-123">
          <mxGeometry relative="1" as="geometry" />
        </mxCell>
        <mxCell id="tJ01jzikXB8J_-vJGD6S-137" style="edgeStyle=orthogonalEdgeStyle;orthogonalLoop=1;jettySize=auto;html=1;exitX=0.5;exitY=1;exitDx=0;exitDy=0;entryX=0;entryY=0.5;entryDx=0;entryDy=0;fontColor=default;" edge="1" parent="WIyWlLk6GJQsqaUBKTNV-1" source="tJ01jzikXB8J_-vJGD6S-64" target="tJ01jzikXB8J_-vJGD6S-130">
          <mxGeometry relative="1" as="geometry">
            <Array as="points">
              <mxPoint x="90" y="350" />
            </Array>
          </mxGeometry>
        </mxCell>
        <mxCell id="tJ01jzikXB8J_-vJGD6S-64" value="What is most important to you?" style="whiteSpace=wrap;html=1;aspect=fixed;fontColor=#000000;" vertex="1" parent="WIyWlLk6GJQsqaUBKTNV-1">
          <mxGeometry x="50" y="60" width="80" height="80" as="geometry" />
        </mxCell>
        <mxCell id="tJ01jzikXB8J_-vJGD6S-65" value="Isn&#39;t that another form of selfishness?" style="whiteSpace=wrap;html=1;aspect=fixed;fontColor=#000000;" vertex="1" parent="WIyWlLk6GJQsqaUBKTNV-1">
          <mxGeometry x="224" y="60" width="80" height="80" as="geometry" />
        </mxCell>
        <mxCell id="tJ01jzikXB8J_-vJGD6S-68" value="-1" style="ellipse;whiteSpace=wrap;html=1;fontColor=#FF3333;" vertex="1" parent="WIyWlLk6GJQsqaUBKTNV-1">
          <mxGeometry x="353" y="65" width="30" height="30" as="geometry" />
        </mxCell>
        <mxCell id="tJ01jzikXB8J_-vJGD6S-71" value="" style="endArrow=classic;html=1;fontColor=#FF3333;exitX=1;exitY=0.25;exitDx=0;exitDy=0;entryX=0;entryY=0.5;entryDx=0;entryDy=0;" edge="1" parent="WIyWlLk6GJQsqaUBKTNV-1" source="tJ01jzikXB8J_-vJGD6S-65" target="tJ01jzikXB8J_-vJGD6S-68">
          <mxGeometry width="50" height="50" relative="1" as="geometry">
            <mxPoint x="154" y="280" as="sourcePoint" />
            <mxPoint x="204" y="230" as="targetPoint" />
          </mxGeometry>
        </mxCell>
        <mxCell id="tJ01jzikXB8J_-vJGD6S-72" value="" style="endArrow=classic;html=1;fontColor=#FF3333;exitX=1;exitY=0.75;exitDx=0;exitDy=0;" edge="1" parent="WIyWlLk6GJQsqaUBKTNV-1" source="tJ01jzikXB8J_-vJGD6S-65">
          <mxGeometry width="50" height="50" relative="1" as="geometry">
            <mxPoint x="314" y="90" as="sourcePoint" />
            <mxPoint x="404" y="120" as="targetPoint" />
          </mxGeometry>
        </mxCell>
        <mxCell id="tJ01jzikXB8J_-vJGD6S-74" value="No" style="edgeLabel;html=1;align=center;verticalAlign=middle;resizable=0;points=[];fontColor=default;" vertex="1" connectable="0" parent="tJ01jzikXB8J_-vJGD6S-72">
          <mxGeometry x="-0.56" y="7" relative="1" as="geometry">
            <mxPoint y="-2" as="offset" />
          </mxGeometry>
        </mxCell>
        <mxCell id="tJ01jzikXB8J_-vJGD6S-73" value="" style="endArrow=classic;html=1;fontColor=#FF3333;" edge="1" parent="WIyWlLk6GJQsqaUBKTNV-1">
          <mxGeometry width="50" height="50" relative="1" as="geometry">
            <mxPoint x="384" y="80" as="sourcePoint" />
            <mxPoint x="404" y="80" as="targetPoint" />
          </mxGeometry>
        </mxCell>
        <mxCell id="tJ01jzikXB8J_-vJGD6S-76" value="Yes" style="text;html=1;resizable=0;autosize=1;align=center;verticalAlign=middle;points=[];fillColor=none;strokeColor=none;rounded=0;fontColor=default;" vertex="1" parent="WIyWlLk6GJQsqaUBKTNV-1">
          <mxGeometry x="304" y="60" width="40" height="20" as="geometry" />
        </mxCell>
        <mxCell id="tJ01jzikXB8J_-vJGD6S-78" value="If you could take a pill that made you at peace with the world, with no side effects, would you?" style="rounded=0;whiteSpace=wrap;html=1;fontColor=default;" vertex="1" parent="WIyWlLk6GJQsqaUBKTNV-1">
          <mxGeometry x="404" y="60" width="146" height="80" as="geometry" />
        </mxCell>
        <mxCell id="tJ01jzikXB8J_-vJGD6S-79" value="-1" style="ellipse;whiteSpace=wrap;html=1;fontColor=#FF3333;" vertex="1" parent="WIyWlLk6GJQsqaUBKTNV-1">
          <mxGeometry x="593" y="65" width="30" height="30" as="geometry" />
        </mxCell>
        <mxCell id="tJ01jzikXB8J_-vJGD6S-80" value="" style="endArrow=classic;html=1;fontColor=#FF3333;exitX=1;exitY=0.25;exitDx=0;exitDy=0;entryX=0;entryY=0.5;entryDx=0;entryDy=0;" edge="1" parent="WIyWlLk6GJQsqaUBKTNV-1" target="tJ01jzikXB8J_-vJGD6S-79" source="tJ01jzikXB8J_-vJGD6S-78">
          <mxGeometry width="50" height="50" relative="1" as="geometry">
            <mxPoint x="544" y="80" as="sourcePoint" />
            <mxPoint x="444" y="230" as="targetPoint" />
          </mxGeometry>
        </mxCell>
        <mxCell id="tJ01jzikXB8J_-vJGD6S-81" value="" style="endArrow=classic;html=1;fontColor=#FF3333;exitX=1;exitY=0.75;exitDx=0;exitDy=0;" edge="1" parent="WIyWlLk6GJQsqaUBKTNV-1" source="tJ01jzikXB8J_-vJGD6S-78">
          <mxGeometry width="50" height="50" relative="1" as="geometry">
            <mxPoint x="544" y="120" as="sourcePoint" />
            <mxPoint x="640" y="120" as="targetPoint" />
          </mxGeometry>
        </mxCell>
        <mxCell id="tJ01jzikXB8J_-vJGD6S-82" value="No" style="edgeLabel;html=1;align=center;verticalAlign=middle;resizable=0;points=[];fontColor=default;" vertex="1" connectable="0" parent="tJ01jzikXB8J_-vJGD6S-81">
          <mxGeometry x="-0.56" y="7" relative="1" as="geometry">
            <mxPoint y="-2" as="offset" />
          </mxGeometry>
        </mxCell>
        <mxCell id="tJ01jzikXB8J_-vJGD6S-83" value="" style="endArrow=classic;html=1;fontColor=#FF3333;" edge="1" parent="WIyWlLk6GJQsqaUBKTNV-1">
          <mxGeometry width="50" height="50" relative="1" as="geometry">
            <mxPoint x="624" y="80" as="sourcePoint" />
            <mxPoint x="640" y="80" as="targetPoint" />
          </mxGeometry>
        </mxCell>
        <mxCell id="tJ01jzikXB8J_-vJGD6S-84" value="Yes" style="text;html=1;resizable=0;autosize=1;align=center;verticalAlign=middle;points=[];fillColor=none;strokeColor=none;rounded=0;fontColor=default;" vertex="1" parent="WIyWlLk6GJQsqaUBKTNV-1">
          <mxGeometry x="544" y="60" width="40" height="20" as="geometry" />
        </mxCell>
        <mxCell id="tJ01jzikXB8J_-vJGD6S-87" value="Isn&#39;t there another way to find those things?" style="whiteSpace=wrap;html=1;aspect=fixed;fontColor=#000000;" vertex="1" parent="WIyWlLk6GJQsqaUBKTNV-1">
          <mxGeometry x="224" y="195" width="80" height="80" as="geometry" />
        </mxCell>
        <mxCell id="tJ01jzikXB8J_-vJGD6S-88" value="" style="endArrow=classic;html=1;exitX=1;exitY=0.5;exitDx=0;exitDy=0;entryX=0;entryY=0.5;entryDx=0;entryDy=0;startArrow=none;" edge="1" parent="WIyWlLk6GJQsqaUBKTNV-1" source="tJ01jzikXB8J_-vJGD6S-86" target="tJ01jzikXB8J_-vJGD6S-87">
          <mxGeometry relative="1" as="geometry">
            <mxPoint x="154" y="235" as="sourcePoint" />
            <mxPoint x="224" y="170" as="targetPoint" />
            <Array as="points">
              <mxPoint x="204" y="235" />
            </Array>
          </mxGeometry>
        </mxCell>
        <mxCell id="tJ01jzikXB8J_-vJGD6S-93" value="" style="endArrow=classic;html=1;fontColor=#FF3333;exitX=1;exitY=0.25;exitDx=0;exitDy=0;entryX=0;entryY=0.5;entryDx=0;entryDy=0;" edge="1" parent="WIyWlLk6GJQsqaUBKTNV-1" target="tJ01jzikXB8J_-vJGD6S-98" source="tJ01jzikXB8J_-vJGD6S-87">
          <mxGeometry width="50" height="50" relative="1" as="geometry">
            <mxPoint x="304" y="170" as="sourcePoint" />
            <mxPoint x="354" y="170" as="targetPoint" />
            <Array as="points">
              <mxPoint x="330" y="215" />
              <mxPoint x="330" y="177" />
            </Array>
          </mxGeometry>
        </mxCell>
        <mxCell id="tJ01jzikXB8J_-vJGD6S-94" value="" style="endArrow=classic;html=1;fontColor=#FF3333;entryX=0;entryY=0.5;entryDx=0;entryDy=0;exitX=1;exitY=0.75;exitDx=0;exitDy=0;" edge="1" parent="WIyWlLk6GJQsqaUBKTNV-1" source="tJ01jzikXB8J_-vJGD6S-87" target="tJ01jzikXB8J_-vJGD6S-107">
          <mxGeometry width="50" height="50" relative="1" as="geometry">
            <mxPoint x="300" y="252" as="sourcePoint" />
            <mxPoint x="354" y="240" as="targetPoint" />
            <Array as="points" />
          </mxGeometry>
        </mxCell>
        <mxCell id="tJ01jzikXB8J_-vJGD6S-95" value="No" style="edgeLabel;html=1;align=center;verticalAlign=middle;resizable=0;points=[];fontColor=default;" vertex="1" connectable="0" parent="tJ01jzikXB8J_-vJGD6S-94">
          <mxGeometry x="-0.56" y="7" relative="1" as="geometry">
            <mxPoint y="-2" as="offset" />
          </mxGeometry>
        </mxCell>
        <mxCell id="tJ01jzikXB8J_-vJGD6S-97" value="Yes" style="text;html=1;resizable=0;autosize=1;align=center;verticalAlign=middle;points=[];fillColor=none;strokeColor=none;rounded=0;fontColor=default;" vertex="1" parent="WIyWlLk6GJQsqaUBKTNV-1">
          <mxGeometry x="343" y="175" width="40" height="20" as="geometry" />
        </mxCell>
        <mxCell id="tJ01jzikXB8J_-vJGD6S-98" value="Did you lack faith in your ability to reach that freedom, &lt;br&gt;or did you just not care?" style="rounded=0;whiteSpace=wrap;html=1;fontColor=default;" vertex="1" parent="WIyWlLk6GJQsqaUBKTNV-1">
          <mxGeometry x="404" y="147" width="146" height="60" as="geometry" />
        </mxCell>
        <mxCell id="tJ01jzikXB8J_-vJGD6S-102" value="" style="endArrow=classic;html=1;fontColor=#FF3333;exitX=1;exitY=0.25;exitDx=0;exitDy=0;" edge="1" parent="WIyWlLk6GJQsqaUBKTNV-1" source="tJ01jzikXB8J_-vJGD6S-98">
          <mxGeometry width="50" height="50" relative="1" as="geometry">
            <mxPoint x="514" y="160" as="sourcePoint" />
            <mxPoint x="640" y="162" as="targetPoint" />
          </mxGeometry>
        </mxCell>
        <mxCell id="tJ01jzikXB8J_-vJGD6S-103" value="Faithlessness" style="edgeLabel;html=1;align=center;verticalAlign=middle;resizable=0;points=[];fontColor=default;" vertex="1" connectable="0" parent="tJ01jzikXB8J_-vJGD6S-102">
          <mxGeometry x="-0.56" y="7" relative="1" as="geometry">
            <mxPoint x="20" y="-3" as="offset" />
          </mxGeometry>
        </mxCell>
        <mxCell id="tJ01jzikXB8J_-vJGD6S-104" value="" style="endArrow=classic;html=1;fontColor=#FF3333;exitX=1;exitY=0.75;exitDx=0;exitDy=0;" edge="1" parent="WIyWlLk6GJQsqaUBKTNV-1" source="tJ01jzikXB8J_-vJGD6S-98">
          <mxGeometry width="50" height="50" relative="1" as="geometry">
            <mxPoint x="544" y="200" as="sourcePoint" />
            <mxPoint x="640" y="192" as="targetPoint" />
          </mxGeometry>
        </mxCell>
        <mxCell id="tJ01jzikXB8J_-vJGD6S-105" value="Apathy" style="edgeLabel;html=1;align=center;verticalAlign=middle;resizable=0;points=[];fontColor=default;" vertex="1" connectable="0" parent="tJ01jzikXB8J_-vJGD6S-104">
          <mxGeometry x="-0.56" y="7" relative="1" as="geometry">
            <mxPoint x="21" y="-5" as="offset" />
          </mxGeometry>
        </mxCell>
        <mxCell id="tJ01jzikXB8J_-vJGD6S-107" value="Did you just convince yourself you had exhausted all &lt;br&gt;your options to justify your resignation?" style="rounded=0;whiteSpace=wrap;html=1;fontColor=default;" vertex="1" parent="WIyWlLk6GJQsqaUBKTNV-1">
          <mxGeometry x="404" y="218" width="146" height="75" as="geometry" />
        </mxCell>
        <mxCell id="tJ01jzikXB8J_-vJGD6S-108" value="-1" style="ellipse;whiteSpace=wrap;html=1;fontColor=#FF3333;" vertex="1" parent="WIyWlLk6GJQsqaUBKTNV-1">
          <mxGeometry x="593" y="260" width="30" height="30" as="geometry" />
        </mxCell>
        <mxCell id="tJ01jzikXB8J_-vJGD6S-109" value="" style="endArrow=classic;html=1;fontColor=#FF3333;exitX=1;exitY=0.25;exitDx=0;exitDy=0;snapToPoint=1;flowAnimation=0;orthogonal=1;" edge="1" parent="WIyWlLk6GJQsqaUBKTNV-1" source="tJ01jzikXB8J_-vJGD6S-107">
          <mxGeometry width="50" height="50" relative="1" as="geometry">
            <mxPoint x="514" y="209" as="sourcePoint" />
            <mxPoint x="640" y="237" as="targetPoint" />
          </mxGeometry>
        </mxCell>
        <mxCell id="tJ01jzikXB8J_-vJGD6S-110" value="" style="endArrow=classic;html=1;fontColor=#FF3333;exitX=1;exitY=0.75;exitDx=0;exitDy=0;entryX=0;entryY=0.5;entryDx=0;entryDy=0;" edge="1" parent="WIyWlLk6GJQsqaUBKTNV-1" source="tJ01jzikXB8J_-vJGD6S-107" target="tJ01jzikXB8J_-vJGD6S-108">
          <mxGeometry width="50" height="50" relative="1" as="geometry">
            <mxPoint x="544" y="340" as="sourcePoint" />
            <mxPoint x="564" y="260" as="targetPoint" />
          </mxGeometry>
        </mxCell>
        <mxCell id="tJ01jzikXB8J_-vJGD6S-111" value="No" style="edgeLabel;html=1;align=center;verticalAlign=middle;resizable=0;points=[];fontColor=default;" vertex="1" connectable="0" parent="tJ01jzikXB8J_-vJGD6S-110">
          <mxGeometry x="-0.56" y="7" relative="1" as="geometry">
            <mxPoint y="-2" as="offset" />
          </mxGeometry>
        </mxCell>
        <mxCell id="tJ01jzikXB8J_-vJGD6S-116" value="" style="endArrow=classic;html=1;fontColor=#FF3333;exitX=1;exitY=0.5;exitDx=0;exitDy=0;" edge="1" parent="WIyWlLk6GJQsqaUBKTNV-1" source="tJ01jzikXB8J_-vJGD6S-108">
          <mxGeometry width="50" height="50" relative="1" as="geometry">
            <mxPoint x="593" y="254.5" as="sourcePoint" />
            <mxPoint x="640" y="275" as="targetPoint" />
          </mxGeometry>
        </mxCell>
        <mxCell id="tJ01jzikXB8J_-vJGD6S-155" style="edgeStyle=orthogonalEdgeStyle;orthogonalLoop=1;jettySize=auto;html=1;exitX=1;exitY=0.25;exitDx=0;exitDy=0;entryX=0;entryY=0.5;entryDx=0;entryDy=0;fontColor=#009E4F;" edge="1" parent="WIyWlLk6GJQsqaUBKTNV-1" source="tJ01jzikXB8J_-vJGD6S-121" target="tJ01jzikXB8J_-vJGD6S-141">
          <mxGeometry relative="1" as="geometry" />
        </mxCell>
        <mxCell id="tJ01jzikXB8J_-vJGD6S-156" style="edgeStyle=orthogonalEdgeStyle;orthogonalLoop=1;jettySize=auto;html=1;exitX=1;exitY=0.75;exitDx=0;exitDy=0;fontColor=#009E4F;entryX=0;entryY=0.5;entryDx=0;entryDy=0;" edge="1" parent="WIyWlLk6GJQsqaUBKTNV-1" source="tJ01jzikXB8J_-vJGD6S-121" target="tJ01jzikXB8J_-vJGD6S-146">
          <mxGeometry relative="1" as="geometry">
            <mxPoint x="330" y="410" as="targetPoint" />
            <Array as="points">
              <mxPoint x="300" y="370" />
              <mxPoint x="330" y="370" />
              <mxPoint x="330" y="365" />
            </Array>
          </mxGeometry>
        </mxCell>
        <mxCell id="tJ01jzikXB8J_-vJGD6S-121" value="Which is more important, your value to &lt;br&gt;them or theirs to you?" style="whiteSpace=wrap;html=1;aspect=fixed;fontColor=#000000;" vertex="1" parent="WIyWlLk6GJQsqaUBKTNV-1">
          <mxGeometry x="224" y="310" width="80" height="80" as="geometry" />
        </mxCell>
        <mxCell id="tJ01jzikXB8J_-vJGD6S-86" value="&lt;font color=&quot;#FF3333&quot;&gt;-3&lt;/font&gt;" style="ellipse;whiteSpace=wrap;html=1;fontColor=default;" vertex="1" parent="WIyWlLk6GJQsqaUBKTNV-1">
          <mxGeometry x="160" y="220" width="30" height="30" as="geometry" />
        </mxCell>
        <mxCell id="tJ01jzikXB8J_-vJGD6S-123" value="Other" style="rhombus;whiteSpace=wrap;html=1;fontColor=default;" vertex="1" parent="WIyWlLk6GJQsqaUBKTNV-1">
          <mxGeometry x="50" y="410" width="80" height="80" as="geometry" />
        </mxCell>
        <mxCell id="tJ01jzikXB8J_-vJGD6S-129" value="Yes" style="edgeLabel;html=1;align=center;verticalAlign=middle;resizable=0;points=[];fontColor=default;" vertex="1" connectable="0" parent="WIyWlLk6GJQsqaUBKTNV-1">
          <mxGeometry x="580" y="160" as="geometry">
            <mxPoint x="-13" y="62" as="offset" />
          </mxGeometry>
        </mxCell>
        <mxCell id="tJ01jzikXB8J_-vJGD6S-130" value="&lt;font color=&quot;#009E4F&quot;&gt;+1&lt;/font&gt;" style="ellipse;whiteSpace=wrap;html=1;fontColor=default;" vertex="1" parent="WIyWlLk6GJQsqaUBKTNV-1">
          <mxGeometry x="160" y="335" width="30" height="30" as="geometry" />
        </mxCell>
        <mxCell id="tJ01jzikXB8J_-vJGD6S-138" value="&lt;div&gt;Friendship&lt;/div&gt;" style="edgeLabel;resizable=0;html=1;align=center;verticalAlign=middle;" connectable="0" vertex="1" parent="WIyWlLk6GJQsqaUBKTNV-1">
          <mxGeometry x="121" y="314" as="geometry">
            <mxPoint x="-4" y="18" as="offset" />
          </mxGeometry>
        </mxCell>
        <mxCell id="tJ01jzikXB8J_-vJGD6S-140" value="Theirs" style="edgeLabel;html=1;align=center;verticalAlign=middle;resizable=0;points=[];fontColor=default;" vertex="1" connectable="0" parent="WIyWlLk6GJQsqaUBKTNV-1">
          <mxGeometry x="324" y="410" as="geometry">
            <mxPoint x="-3" y="-30" as="offset" />
          </mxGeometry>
        </mxCell>
        <mxCell id="tJ01jzikXB8J_-vJGD6S-141" value="Are you sure you even have value to them?" style="rounded=0;whiteSpace=wrap;html=1;fontColor=default;" vertex="1" parent="WIyWlLk6GJQsqaUBKTNV-1">
          <mxGeometry x="404" y="315" width="146" height="30" as="geometry" />
        </mxCell>
        <mxCell id="tJ01jzikXB8J_-vJGD6S-142" value="" style="endArrow=classic;html=1;fontColor=#FF3333;exitX=1;exitY=0.25;exitDx=0;exitDy=0;" edge="1" parent="WIyWlLk6GJQsqaUBKTNV-1" source="tJ01jzikXB8J_-vJGD6S-141">
          <mxGeometry width="50" height="50" relative="1" as="geometry">
            <mxPoint x="430" y="314" as="sourcePoint" />
            <mxPoint x="640" y="323" as="targetPoint" />
          </mxGeometry>
        </mxCell>
        <mxCell id="tJ01jzikXB8J_-vJGD6S-143" value="Yes" style="edgeLabel;html=1;align=center;verticalAlign=middle;resizable=0;points=[];fontColor=default;" vertex="1" connectable="0" parent="tJ01jzikXB8J_-vJGD6S-142">
          <mxGeometry x="-0.56" y="7" relative="1" as="geometry">
            <mxPoint x="-6" y="-6" as="offset" />
          </mxGeometry>
        </mxCell>
        <mxCell id="tJ01jzikXB8J_-vJGD6S-144" value="" style="endArrow=classic;html=1;fontColor=#FF3333;exitX=1;exitY=0.75;exitDx=0;exitDy=0;" edge="1" parent="WIyWlLk6GJQsqaUBKTNV-1" source="tJ01jzikXB8J_-vJGD6S-141">
          <mxGeometry width="50" height="50" relative="1" as="geometry">
            <mxPoint x="544" y="344" as="sourcePoint" />
            <mxPoint x="640" y="338" as="targetPoint" />
          </mxGeometry>
        </mxCell>
        <mxCell id="tJ01jzikXB8J_-vJGD6S-145" value="No" style="edgeLabel;html=1;align=center;verticalAlign=middle;resizable=0;points=[];fontColor=default;" vertex="1" connectable="0" parent="tJ01jzikXB8J_-vJGD6S-144">
          <mxGeometry x="-0.56" y="7" relative="1" as="geometry">
            <mxPoint x="-5" y="16" as="offset" />
          </mxGeometry>
        </mxCell>
        <mxCell id="tJ01jzikXB8J_-vJGD6S-146" value="Aren&#39;t you just using them?" style="rounded=0;whiteSpace=wrap;html=1;fontColor=default;" vertex="1" parent="WIyWlLk6GJQsqaUBKTNV-1">
          <mxGeometry x="404" y="355" width="146" height="30" as="geometry" />
        </mxCell>
        <mxCell id="tJ01jzikXB8J_-vJGD6S-148" value="" style="endArrow=classic;html=1;fontColor=#FF3333;exitX=1;exitY=0.25;exitDx=0;exitDy=0;snapToPoint=1;flowAnimation=0;orthogonal=1;" edge="1" parent="WIyWlLk6GJQsqaUBKTNV-1" source="tJ01jzikXB8J_-vJGD6S-146">
          <mxGeometry width="50" height="50" relative="1" as="geometry">
            <mxPoint x="514" y="353" as="sourcePoint" />
            <mxPoint x="640" y="363" as="targetPoint" />
          </mxGeometry>
        </mxCell>
        <mxCell id="tJ01jzikXB8J_-vJGD6S-149" value="" style="endArrow=classic;html=1;fontColor=#FF3333;exitX=1;exitY=0.75;exitDx=0;exitDy=0;" edge="1" parent="WIyWlLk6GJQsqaUBKTNV-1" source="tJ01jzikXB8J_-vJGD6S-146">
          <mxGeometry width="50" height="50" relative="1" as="geometry">
            <mxPoint x="544" y="484" as="sourcePoint" />
            <mxPoint x="640" y="378" as="targetPoint" />
          </mxGeometry>
        </mxCell>
        <mxCell id="tJ01jzikXB8J_-vJGD6S-150" value="No" style="edgeLabel;html=1;align=center;verticalAlign=middle;resizable=0;points=[];fontColor=default;" vertex="1" connectable="0" parent="tJ01jzikXB8J_-vJGD6S-149">
          <mxGeometry x="-0.56" y="7" relative="1" as="geometry">
            <mxPoint x="38" y="15" as="offset" />
          </mxGeometry>
        </mxCell>
        <mxCell id="tJ01jzikXB8J_-vJGD6S-152" value="Yes" style="edgeLabel;html=1;align=center;verticalAlign=middle;resizable=0;points=[];fontColor=default;" vertex="1" connectable="0" parent="WIyWlLk6GJQsqaUBKTNV-1">
          <mxGeometry x="623" y="291" as="geometry">
            <mxPoint x="-13" y="62" as="offset" />
          </mxGeometry>
        </mxCell>
        <mxCell id="tJ01jzikXB8J_-vJGD6S-153" value="" style="endArrow=classic;html=1;exitX=1;exitY=0.5;exitDx=0;exitDy=0;entryX=0;entryY=0.5;entryDx=0;entryDy=0;startArrow=none;" edge="1" parent="WIyWlLk6GJQsqaUBKTNV-1" source="tJ01jzikXB8J_-vJGD6S-130" target="tJ01jzikXB8J_-vJGD6S-121">
          <mxGeometry relative="1" as="geometry">
            <mxPoint x="196" y="326" as="sourcePoint" />
            <mxPoint x="230" y="326" as="targetPoint" />
            <Array as="points" />
          </mxGeometry>
        </mxCell>
        <mxCell id="tJ01jzikXB8J_-vJGD6S-157" value="Mine" style="edgeLabel;html=1;align=center;verticalAlign=middle;resizable=0;points=[];fontColor=default;" vertex="1" connectable="0" parent="WIyWlLk6GJQsqaUBKTNV-1">
          <mxGeometry x="324" y="340" as="geometry">
            <mxPoint x="-6" y="-19" as="offset" />
          </mxGeometry>
        </mxCell>
        <mxCell id="tJ01jzikXB8J_-vJGD6S-192" value="&lt;font color=&quot;#009E4F&quot;&gt;+2&lt;/font&gt;" style="ellipse;whiteSpace=wrap;html=1;fontColor=default;" vertex="1" parent="WIyWlLk6GJQsqaUBKTNV-1">
          <mxGeometry x="160" y="520" width="30" height="30" as="geometry" />
        </mxCell>
        <mxCell id="tJ01jzikXB8J_-vJGD6S-196" value="" style="endArrow=classic;html=1;exitX=1;exitY=0.5;exitDx=0;exitDy=0;entryX=0;entryY=0.5;entryDx=0;entryDy=0;" edge="1" parent="WIyWlLk6GJQsqaUBKTNV-1" source="tJ01jzikXB8J_-vJGD6S-192" target="tJ01jzikXB8J_-vJGD6S-199">
          <mxGeometry relative="1" as="geometry">
            <mxPoint x="283" y="512.5" as="sourcePoint" />
            <mxPoint x="224" y="453" as="targetPoint" />
            <Array as="points">
              <mxPoint x="200" y="535" />
              <mxPoint x="200" y="450" />
            </Array>
          </mxGeometry>
        </mxCell>
        <mxCell id="tJ01jzikXB8J_-vJGD6S-199" value="&lt;font color=&quot;#00190D&quot;&gt;Or did you just choose this because you thought it &lt;br&gt;was what I would want to hear?&lt;/font&gt;" style="rounded=0;whiteSpace=wrap;html=1;fontColor=#009E4F;" vertex="1" parent="WIyWlLk6GJQsqaUBKTNV-1">
          <mxGeometry x="224" y="400" width="80" height="100" as="geometry" />
        </mxCell>
      </root>
    </mxGraphModel>
  </diagram>
</mxfile>
